<mxfile host="app.diagrams.net" agent="Mozilla/5.0 (Windows NT 10.0; Win64; x64) AppleWebKit/537.36 (KHTML, like Gecko) Chrome/133.0.0.0 Safari/537.36" version="26.1.0">
  <diagram name="Page-1" id="tSuIRPMSjHtVdJXCy0-r">
    <mxGraphModel dx="1674" dy="738" grid="1" gridSize="10" guides="1" tooltips="1" connect="1" arrows="1" fold="1" page="1" pageScale="1" pageWidth="850" pageHeight="1100" math="0" shadow="0">
      <root>
        <mxCell id="0" />
        <mxCell id="1" parent="0" />
        <mxCell id="jtNMm8rR2WpRx-EZt6Rg-1" value="Kunde" style="swimlane;fontStyle=1;align=center;verticalAlign=top;childLayout=stackLayout;horizontal=1;startSize=26;horizontalStack=0;resizeParent=1;resizeParentMax=0;resizeLast=0;collapsible=1;marginBottom=0;whiteSpace=wrap;html=1;" vertex="1" parent="1">
          <mxGeometry x="160" y="170" width="170" height="170" as="geometry" />
        </mxCell>
        <mxCell id="jtNMm8rR2WpRx-EZt6Rg-2" value="- name: string&lt;div&gt;- alter: int&lt;/div&gt;&lt;div&gt;-&lt;span style=&quot;background-color: initial;&quot;&gt;&amp;nbsp;geschlecht: string&lt;/span&gt;&lt;div&gt;- adresse: boolean&lt;/div&gt;&lt;div&gt;- umsatz: double&lt;/div&gt;&lt;/div&gt;" style="text;strokeColor=none;fillColor=none;align=left;verticalAlign=top;spacingLeft=4;spacingRight=4;overflow=hidden;rotatable=0;points=[[0,0.5],[1,0.5]];portConstraint=eastwest;whiteSpace=wrap;html=1;" vertex="1" parent="jtNMm8rR2WpRx-EZt6Rg-1">
          <mxGeometry y="26" width="170" height="84" as="geometry" />
        </mxCell>
        <mxCell id="jtNMm8rR2WpRx-EZt6Rg-3" value="" style="line;strokeWidth=1;fillColor=none;align=left;verticalAlign=middle;spacingTop=-1;spacingLeft=3;spacingRight=3;rotatable=0;labelPosition=right;points=[];portConstraint=eastwest;strokeColor=inherit;" vertex="1" parent="jtNMm8rR2WpRx-EZt6Rg-1">
          <mxGeometry y="110" width="170" height="8" as="geometry" />
        </mxCell>
        <mxCell id="jtNMm8rR2WpRx-EZt6Rg-4" value="+ kaufen(Produkt pr): void&lt;div&gt;- informieren(Produkt pr): void&lt;/div&gt;&lt;div&gt;+ bewerten(): void&lt;/div&gt;" style="text;strokeColor=none;fillColor=none;align=left;verticalAlign=top;spacingLeft=4;spacingRight=4;overflow=hidden;rotatable=0;points=[[0,0.5],[1,0.5]];portConstraint=eastwest;whiteSpace=wrap;html=1;" vertex="1" parent="jtNMm8rR2WpRx-EZt6Rg-1">
          <mxGeometry y="118" width="170" height="52" as="geometry" />
        </mxCell>
        <mxCell id="jtNMm8rR2WpRx-EZt6Rg-9" value="BusinessKunde" style="swimlane;fontStyle=1;align=center;verticalAlign=top;childLayout=stackLayout;horizontal=1;startSize=26;horizontalStack=0;resizeParent=1;resizeParentMax=0;resizeLast=0;collapsible=1;marginBottom=0;whiteSpace=wrap;html=1;" vertex="1" parent="1">
          <mxGeometry x="40" y="481" width="170" height="90" as="geometry" />
        </mxCell>
        <mxCell id="jtNMm8rR2WpRx-EZt6Rg-10" value="- allowedForCreditLine: bool" style="text;strokeColor=none;fillColor=none;align=left;verticalAlign=top;spacingLeft=4;spacingRight=4;overflow=hidden;rotatable=0;points=[[0,0.5],[1,0.5]];portConstraint=eastwest;whiteSpace=wrap;html=1;" vertex="1" parent="jtNMm8rR2WpRx-EZt6Rg-9">
          <mxGeometry y="26" width="170" height="26" as="geometry" />
        </mxCell>
        <mxCell id="jtNMm8rR2WpRx-EZt6Rg-11" value="" style="line;strokeWidth=1;fillColor=none;align=left;verticalAlign=middle;spacingTop=-1;spacingLeft=3;spacingRight=3;rotatable=0;labelPosition=right;points=[];portConstraint=eastwest;strokeColor=inherit;" vertex="1" parent="jtNMm8rR2WpRx-EZt6Rg-9">
          <mxGeometry y="52" width="170" height="8" as="geometry" />
        </mxCell>
        <mxCell id="jtNMm8rR2WpRx-EZt6Rg-12" value="&lt;div&gt;+ requestCredit(): void&lt;/div&gt;" style="text;strokeColor=none;fillColor=none;align=left;verticalAlign=top;spacingLeft=4;spacingRight=4;overflow=hidden;rotatable=0;points=[[0,0.5],[1,0.5]];portConstraint=eastwest;whiteSpace=wrap;html=1;" vertex="1" parent="jtNMm8rR2WpRx-EZt6Rg-9">
          <mxGeometry y="60" width="170" height="30" as="geometry" />
        </mxCell>
        <mxCell id="jtNMm8rR2WpRx-EZt6Rg-13" value="ist" style="endArrow=block;endSize=16;endFill=0;html=1;rounded=0;exitX=0.5;exitY=0;exitDx=0;exitDy=0;" edge="1" parent="1" source="jtNMm8rR2WpRx-EZt6Rg-9" target="jtNMm8rR2WpRx-EZt6Rg-1">
          <mxGeometry width="160" relative="1" as="geometry">
            <mxPoint x="120" y="440" as="sourcePoint" />
            <mxPoint x="248.79999999999995" y="369.99600000000004" as="targetPoint" />
            <Array as="points">
              <mxPoint x="125" y="410" />
              <mxPoint x="180" y="410" />
              <mxPoint x="246" y="410" />
            </Array>
          </mxGeometry>
        </mxCell>
        <mxCell id="jtNMm8rR2WpRx-EZt6Rg-15" value="Shop" style="swimlane;fontStyle=1;align=center;verticalAlign=top;childLayout=stackLayout;horizontal=1;startSize=26;horizontalStack=0;resizeParent=1;resizeParentMax=0;resizeLast=0;collapsible=1;marginBottom=0;whiteSpace=wrap;html=1;" vertex="1" parent="1">
          <mxGeometry x="520" y="203" width="210" height="108" as="geometry" />
        </mxCell>
        <mxCell id="jtNMm8rR2WpRx-EZt6Rg-16" value="- kassa: double&lt;div&gt;- Ã¶naceCode: string&lt;/div&gt;" style="text;strokeColor=none;fillColor=none;align=left;verticalAlign=top;spacingLeft=4;spacingRight=4;overflow=hidden;rotatable=0;points=[[0,0.5],[1,0.5]];portConstraint=eastwest;whiteSpace=wrap;html=1;" vertex="1" parent="jtNMm8rR2WpRx-EZt6Rg-15">
          <mxGeometry y="26" width="210" height="34" as="geometry" />
        </mxCell>
        <mxCell id="jtNMm8rR2WpRx-EZt6Rg-17" value="" style="line;strokeWidth=1;fillColor=none;align=left;verticalAlign=middle;spacingTop=-1;spacingLeft=3;spacingRight=3;rotatable=0;labelPosition=right;points=[];portConstraint=eastwest;strokeColor=inherit;" vertex="1" parent="jtNMm8rR2WpRx-EZt6Rg-15">
          <mxGeometry y="60" width="210" height="8" as="geometry" />
        </mxCell>
        <mxCell id="jtNMm8rR2WpRx-EZt6Rg-18" value="+ relocateEmployee(): void" style="text;strokeColor=none;fillColor=none;align=left;verticalAlign=top;spacingLeft=4;spacingRight=4;overflow=hidden;rotatable=0;points=[[0,0.5],[1,0.5]];portConstraint=eastwest;whiteSpace=wrap;html=1;" vertex="1" parent="jtNMm8rR2WpRx-EZt6Rg-15">
          <mxGeometry y="68" width="210" height="40" as="geometry" />
        </mxCell>
        <mxCell id="jtNMm8rR2WpRx-EZt6Rg-20" value="RetailKunde" style="swimlane;fontStyle=1;align=center;verticalAlign=top;childLayout=stackLayout;horizontal=1;startSize=26;horizontalStack=0;resizeParent=1;resizeParentMax=0;resizeLast=0;collapsible=1;marginBottom=0;whiteSpace=wrap;html=1;" vertex="1" parent="1">
          <mxGeometry x="270" y="480" width="160" height="90" as="geometry" />
        </mxCell>
        <mxCell id="jtNMm8rR2WpRx-EZt6Rg-21" value="- hasBenefits: bool" style="text;strokeColor=none;fillColor=none;align=left;verticalAlign=top;spacingLeft=4;spacingRight=4;overflow=hidden;rotatable=0;points=[[0,0.5],[1,0.5]];portConstraint=eastwest;whiteSpace=wrap;html=1;" vertex="1" parent="jtNMm8rR2WpRx-EZt6Rg-20">
          <mxGeometry y="26" width="160" height="26" as="geometry" />
        </mxCell>
        <mxCell id="jtNMm8rR2WpRx-EZt6Rg-22" value="" style="line;strokeWidth=1;fillColor=none;align=left;verticalAlign=middle;spacingTop=-1;spacingLeft=3;spacingRight=3;rotatable=0;labelPosition=right;points=[];portConstraint=eastwest;strokeColor=inherit;" vertex="1" parent="jtNMm8rR2WpRx-EZt6Rg-20">
          <mxGeometry y="52" width="160" height="8" as="geometry" />
        </mxCell>
        <mxCell id="jtNMm8rR2WpRx-EZt6Rg-23" value="+ applyBenefit(): void" style="text;strokeColor=none;fillColor=none;align=left;verticalAlign=top;spacingLeft=4;spacingRight=4;overflow=hidden;rotatable=0;points=[[0,0.5],[1,0.5]];portConstraint=eastwest;whiteSpace=wrap;html=1;" vertex="1" parent="jtNMm8rR2WpRx-EZt6Rg-20">
          <mxGeometry y="60" width="160" height="30" as="geometry" />
        </mxCell>
        <mxCell id="jtNMm8rR2WpRx-EZt6Rg-24" value="ist" style="endArrow=block;endSize=16;endFill=0;html=1;rounded=0;exitX=0.5;exitY=0;exitDx=0;exitDy=0;" edge="1" parent="1" source="jtNMm8rR2WpRx-EZt6Rg-20" target="jtNMm8rR2WpRx-EZt6Rg-1">
          <mxGeometry width="160" relative="1" as="geometry">
            <mxPoint x="350" y="439" as="sourcePoint" />
            <mxPoint x="476" y="334" as="targetPoint" />
            <Array as="points">
              <mxPoint x="350" y="410" />
              <mxPoint x="245" y="410" />
            </Array>
          </mxGeometry>
        </mxCell>
        <mxCell id="jtNMm8rR2WpRx-EZt6Rg-25" value="" style="endArrow=none;html=1;edgeStyle=orthogonalEdgeStyle;rounded=0;exitX=0.25;exitY=1;exitDx=0;exitDy=0;entryX=0;entryY=0.5;entryDx=0;entryDy=0;exitPerimeter=0;" edge="1" parent="1" source="jtNMm8rR2WpRx-EZt6Rg-29" target="jtNMm8rR2WpRx-EZt6Rg-16">
          <mxGeometry relative="1" as="geometry">
            <mxPoint x="419" y="357" as="sourcePoint" />
            <mxPoint x="499" y="300" as="targetPoint" />
            <Array as="points">
              <mxPoint x="520" y="250" />
            </Array>
          </mxGeometry>
        </mxCell>
        <mxCell id="jtNMm8rR2WpRx-EZt6Rg-26" value="hat" style="edgeLabel;html=1;align=center;verticalAlign=middle;resizable=0;points=[];" vertex="1" connectable="0" parent="jtNMm8rR2WpRx-EZt6Rg-25">
          <mxGeometry x="0.2993" y="2" relative="1" as="geometry">
            <mxPoint as="offset" />
          </mxGeometry>
        </mxCell>
        <mxCell id="jtNMm8rR2WpRx-EZt6Rg-27" value="1" style="text;html=1;align=center;verticalAlign=middle;resizable=0;points=[];autosize=1;strokeColor=none;fillColor=none;" vertex="1" parent="1">
          <mxGeometry x="485" y="218" width="30" height="30" as="geometry" />
        </mxCell>
        <mxCell id="jtNMm8rR2WpRx-EZt6Rg-29" value="0-n" style="text;html=1;align=center;verticalAlign=middle;resizable=0;points=[];autosize=1;strokeColor=none;fillColor=none;" vertex="1" parent="1">
          <mxGeometry x="320" y="220" width="40" height="30" as="geometry" />
        </mxCell>
        <mxCell id="jtNMm8rR2WpRx-EZt6Rg-30" value="1-n" style="text;html=1;align=center;verticalAlign=middle;resizable=0;points=[];autosize=1;strokeColor=none;fillColor=none;" vertex="1" parent="1">
          <mxGeometry x="100" y="230" width="40" height="30" as="geometry" />
        </mxCell>
        <mxCell id="jtNMm8rR2WpRx-EZt6Rg-32" value="Produkt ist ein Enum!" style="text;html=1;align=center;verticalAlign=middle;resizable=0;points=[];autosize=1;strokeColor=none;fillColor=none;" vertex="1" parent="1">
          <mxGeometry x="320" y="288" width="140" height="30" as="geometry" />
        </mxCell>
        <mxCell id="jtNMm8rR2WpRx-EZt6Rg-39" value="0-1" style="text;html=1;align=center;verticalAlign=middle;resizable=0;points=[];autosize=1;strokeColor=none;fillColor=none;" vertex="1" parent="1">
          <mxGeometry x="130" y="173" width="40" height="30" as="geometry" />
        </mxCell>
        <mxCell id="jtNMm8rR2WpRx-EZt6Rg-40" value="" style="endArrow=none;html=1;edgeStyle=orthogonalEdgeStyle;rounded=0;exitX=0.5;exitY=0;exitDx=0;exitDy=0;entryX=-0.005;entryY=0.156;entryDx=0;entryDy=0;entryPerimeter=0;" edge="1" parent="1">
          <mxGeometry relative="1" as="geometry">
            <mxPoint x="240" y="170" as="sourcePoint" />
            <mxPoint x="159.19999999999982" y="205.98400000000004" as="targetPoint" />
            <Array as="points">
              <mxPoint x="240" y="140" />
              <mxPoint x="130" y="140" />
              <mxPoint x="130" y="204" />
            </Array>
          </mxGeometry>
        </mxCell>
        <mxCell id="jtNMm8rR2WpRx-EZt6Rg-41" value="kennt" style="edgeLabel;html=1;align=center;verticalAlign=middle;resizable=0;points=[];" vertex="1" connectable="0" parent="jtNMm8rR2WpRx-EZt6Rg-40">
          <mxGeometry x="-0.2942" y="-1" relative="1" as="geometry">
            <mxPoint as="offset" />
          </mxGeometry>
        </mxCell>
        <mxCell id="jtNMm8rR2WpRx-EZt6Rg-42" value="" style="endArrow=open;endFill=1;endSize=12;html=1;rounded=0;entryX=-0.012;entryY=0.31;entryDx=0;entryDy=0;entryPerimeter=0;exitX=0.25;exitY=0;exitDx=0;exitDy=0;" edge="1" parent="1" source="jtNMm8rR2WpRx-EZt6Rg-9">
          <mxGeometry width="160" relative="1" as="geometry">
            <mxPoint x="81.92" y="440" as="sourcePoint" />
            <mxPoint x="159.99999999999994" y="222.03999999999996" as="targetPoint" />
            <Array as="points">
              <mxPoint x="81.92" y="222" />
            </Array>
          </mxGeometry>
        </mxCell>
        <mxCell id="jtNMm8rR2WpRx-EZt6Rg-43" value="vertretet" style="edgeLabel;html=1;align=center;verticalAlign=middle;resizable=0;points=[];" vertex="1" connectable="0" parent="jtNMm8rR2WpRx-EZt6Rg-42">
          <mxGeometry x="-0.1219" y="3" relative="1" as="geometry">
            <mxPoint as="offset" />
          </mxGeometry>
        </mxCell>
        <mxCell id="jtNMm8rR2WpRx-EZt6Rg-45" value="Employee" style="swimlane;fontStyle=1;align=center;verticalAlign=top;childLayout=stackLayout;horizontal=1;startSize=26;horizontalStack=0;resizeParent=1;resizeParentMax=0;resizeLast=0;collapsible=1;marginBottom=0;whiteSpace=wrap;html=1;" vertex="1" parent="1">
          <mxGeometry x="520" y="410" width="210" height="110" as="geometry" />
        </mxCell>
        <mxCell id="jtNMm8rR2WpRx-EZt6Rg-46" value="- name: string&lt;div&gt;- salary: double&lt;/div&gt;" style="text;strokeColor=none;fillColor=none;align=left;verticalAlign=top;spacingLeft=4;spacingRight=4;overflow=hidden;rotatable=0;points=[[0,0.5],[1,0.5]];portConstraint=eastwest;whiteSpace=wrap;html=1;" vertex="1" parent="jtNMm8rR2WpRx-EZt6Rg-45">
          <mxGeometry y="26" width="210" height="34" as="geometry" />
        </mxCell>
        <mxCell id="jtNMm8rR2WpRx-EZt6Rg-47" value="" style="line;strokeWidth=1;fillColor=none;align=left;verticalAlign=middle;spacingTop=-1;spacingLeft=3;spacingRight=3;rotatable=0;labelPosition=right;points=[];portConstraint=eastwest;strokeColor=inherit;" vertex="1" parent="jtNMm8rR2WpRx-EZt6Rg-45">
          <mxGeometry y="60" width="210" height="8" as="geometry" />
        </mxCell>
        <mxCell id="jtNMm8rR2WpRx-EZt6Rg-48" value="+ working(): void" style="text;strokeColor=none;fillColor=none;align=left;verticalAlign=top;spacingLeft=4;spacingRight=4;overflow=hidden;rotatable=0;points=[[0,0.5],[1,0.5]];portConstraint=eastwest;whiteSpace=wrap;html=1;" vertex="1" parent="jtNMm8rR2WpRx-EZt6Rg-45">
          <mxGeometry y="68" width="210" height="42" as="geometry" />
        </mxCell>
        <mxCell id="jtNMm8rR2WpRx-EZt6Rg-49" value="" style="endArrow=none;html=1;edgeStyle=orthogonalEdgeStyle;rounded=0;" edge="1" parent="1" source="jtNMm8rR2WpRx-EZt6Rg-15" target="jtNMm8rR2WpRx-EZt6Rg-45">
          <mxGeometry relative="1" as="geometry">
            <mxPoint x="630" y="300" as="sourcePoint" />
            <mxPoint x="830" y="308" as="targetPoint" />
            <Array as="points" />
          </mxGeometry>
        </mxCell>
        <mxCell id="jtNMm8rR2WpRx-EZt6Rg-50" value="hat" style="edgeLabel;html=1;align=center;verticalAlign=middle;resizable=0;points=[];" vertex="1" connectable="0" parent="jtNMm8rR2WpRx-EZt6Rg-49">
          <mxGeometry x="0.2993" y="2" relative="1" as="geometry">
            <mxPoint x="-7" y="-20" as="offset" />
          </mxGeometry>
        </mxCell>
        <mxCell id="jtNMm8rR2WpRx-EZt6Rg-51" value="1-n" style="text;html=1;align=center;verticalAlign=middle;resizable=0;points=[];autosize=1;strokeColor=none;fillColor=none;" vertex="1" parent="1">
          <mxGeometry x="620" y="380" width="40" height="30" as="geometry" />
        </mxCell>
        <mxCell id="jtNMm8rR2WpRx-EZt6Rg-52" value="1" style="text;html=1;align=center;verticalAlign=middle;resizable=0;points=[];autosize=1;strokeColor=none;fillColor=none;" vertex="1" parent="1">
          <mxGeometry x="620" y="323" width="30" height="30" as="geometry" />
        </mxCell>
        <mxCell id="jtNMm8rR2WpRx-EZt6Rg-54" value="" style="endArrow=none;html=1;edgeStyle=orthogonalEdgeStyle;rounded=0;exitX=0.5;exitY=0;exitDx=0;exitDy=0;" edge="1" parent="1" source="jtNMm8rR2WpRx-EZt6Rg-15" target="jtNMm8rR2WpRx-EZt6Rg-15">
          <mxGeometry relative="1" as="geometry">
            <mxPoint x="600" y="185.01" as="sourcePoint" />
            <mxPoint x="519.1999999999998" y="220.99400000000003" as="targetPoint" />
            <Array as="points">
              <mxPoint x="625" y="155" />
              <mxPoint x="490" y="155" />
              <mxPoint x="490" y="221" />
            </Array>
          </mxGeometry>
        </mxCell>
        <mxCell id="jtNMm8rR2WpRx-EZt6Rg-55" value="partnerShop" style="edgeLabel;html=1;align=center;verticalAlign=middle;resizable=0;points=[];" vertex="1" connectable="0" parent="jtNMm8rR2WpRx-EZt6Rg-54">
          <mxGeometry x="-0.2942" y="-1" relative="1" as="geometry">
            <mxPoint x="-25" as="offset" />
          </mxGeometry>
        </mxCell>
        <mxCell id="jtNMm8rR2WpRx-EZt6Rg-58" value="0-1" style="text;html=1;align=center;verticalAlign=middle;resizable=0;points=[];autosize=1;strokeColor=none;fillColor=none;" vertex="1" parent="1">
          <mxGeometry x="490" y="190" width="40" height="30" as="geometry" />
        </mxCell>
      </root>
    </mxGraphModel>
  </diagram>
</mxfile>
